{
  "asset": {
    "version": "2.0",
    "generator": "THREE.GLTFExporter"
  },
  "scenes": [
    {
      "nodes": [
        0
      ]
    }
  ],
  "scene": 0,
  "nodes": [
    {
      "children": [
        5
      ],
      "matrix": [
        0.01,
        0,
        0,
        0,
        0,
        0.01,
        0,
        0,
        0,
        0,
        0.01,
        0,
        0,
        0,
        0,
        1
      ]
    },
    {
      "matrix": [
        -1,
        -1.7797583114599315e-16,
        -1.4997597826618576e-32,
        0,
        -1.7797583114599315e-16,
        1,
        1.2246467991473532e-16,
        0,
        0,
        1.2246467991473535e-16,
        -1,
        0,
        5.689174158172209e-14,
        -7.129495248391436,
        0.2745615648100408,
        1
      ],
      "name": "Pyramid",
      "mesh": 1
    },
    {
      "matrix": [
        0.25022816635373263,
        0,
        -0.026374093874363583,
        0,
        3.2298949643651205e-18,
        -0.25161424455790465,
        1.667671591656849e-17,
        0,
        -0.026374093874363604,
        -1.684646154017919e-17,
        -0.25022816635373274,
        0,
        58.344614645750504,
        176.27836406588239,
        111.39176565887576,
        1
      ],
      "name": "Pyramid",
      "mesh": 0,
      "children": [
        1
      ]
    },
    {
      "matrix": [
        0.9876979138287625,
        -2.0985298868417268e-8,
        0.1563740100474182,
        0,
        -0.014285893139518212,
        0.9958181742775196,
        0.09023345851619503,
        0,
        -0.1557200830834506,
        -0.09135734113133538,
        0.9835675329868794,
        0,
        45.567664752886145,
        188.5861733956842,
        360.07693164633235,
        1
      ],
      "camera": 0
    },
    {
      "matrix": [
        1,
        0,
        0,
        0,
        0,
        1,
        0,
        0,
        0,
        0,
        1,
        0,
        0,
        1,
        0,
        1
      ],
      "name": "Default Ambient Light"
    },
    {
      "name": "Scene 1",
      "children": [
        2,
        3,
        4
      ]
    }
  ],
  "bufferViews": [
    {
      "buffer": 0,
      "byteOffset": 0,
      "byteLength": 5820,
      "target": 34962,
      "byteStride": 12
    },
    {
      "buffer": 0,
      "byteOffset": 5820,
      "byteLength": 5820,
      "target": 34962,
      "byteStride": 12
    },
    {
      "buffer": 0,
      "byteOffset": 11640,
      "byteLength": 3880,
      "target": 34962,
      "byteStride": 8
    },
    {
      "buffer": 0,
      "byteOffset": 15520,
      "byteLength": 3888,
      "target": 34963
    },
    {
      "buffer": 0,
      "byteOffset": 19408,
      "byteLength": 37248,
      "target": 34962,
      "byteStride": 12
    },
    {
      "buffer": 0,
      "byteOffset": 56656,
      "byteLength": 37248,
      "target": 34962,
      "byteStride": 12
    },
    {
      "buffer": 0,
      "byteOffset": 93904,
      "byteLength": 18624,
      "target": 34963
    }
  ],
  "buffers": [
    {
      "byteLength": 112528,
      "uri": "data:application/octet-stream;base64,"
    }
  ],
  "accessors": [
    {
      "bufferView": 0,
      "componentType": 5126,
      "count": 485,
      "max": [
        123.01446533203125,
        133.09544372558594,
        122.91883850097656
      ],
      "min": [
        -123.01446533203125,
        -145,
        -122.91883850097656
      ],
      "type": "VEC3"
    },
    {
      "bufferView": 1,
      "componentType": 5126,
      "count": 485,
      "max": [
        0.996599555015564,
        1,
        0.9966048002243042
      ],
      "min": [
        -0.996599555015564,
        -1,
        -0.9966048002243042
      ],
      "type": "VEC3"
    },
    {
      "bufferView": 2,
      "componentType": 5126,
      "count": 485,
      "max": [
        0,
        0
      ],
      "min": [
        0,
        0
      ],
      "type": "VEC2"
    },
    {
      "bufferView": 3,
      "componentType": 5123,
      "count": 1944,
      "max": [
        484
      ],
      "min": [
        0
      ],
      "type": "SCALAR"
    },
    {
      "bufferView": 4,
      "componentType": 5126,
      "count": 3104,
      "max": [
        99.12519836425781,
        105.06168365478516,
        98.58615112304688
      ],
      "min": [
        -99.12519836425781,
        -124.64234161376953,
        -98.58615112304688
      ],
      "type": "VEC3"
    },
    {
      "bufferView": 5,
      "componentType": 5126,
      "count": 3104,
      "max": [
        0.9993365406990051,
        1,
        0.9993420839309692
      ],
      "min": [
        -0.9993365406990051,
        -1,
        -0.9993420839309692
      ],
      "type": "VEC3"
    },
    {
      "bufferView": 6,
      "componentType": 5125,
      "count": 4656,
      "max": [
        3103
      ],
      "min": [
        0
      ],
      "type": "SCALAR"
    }
  ],
  "materials": [
    {
      "pbrMetallicRoughness": {
        "metallicFactor": 0.2,
        "roughnessFactor": 0.2
      },
      "doubleSided": false
    },
    {
      "pbrMetallicRoughness": {
        "baseColorFactor": [
          0.8075394081858407,
          0.49905935425884956,
          0,
          1
        ],
        "metallicFactor": 0,
        "roughnessFactor": 0.995
      },
      "doubleSided": false
    }
  ],
  "meshes": [
    {
      "primitives": [
        {
          "mode": 4,
          "attributes": {
            "POSITION": 0,
            "NORMAL": 1,
            "TEXCOORD_0": 2
          },
          "extras": {
            "parameters": {
              "width": 360.03,
              "radialSegments": 4,
              "heightSegments": 1,
              "cornerRadius": 8,
              "cornerSegments": 8,
              "openEnded": false,
              "depth": 359.7501215070055,
              "height": 290,
              "type": "PyramidGeometry"
            },
            "type": "PyramidGeometry"
          },
          "indices": 3,
          "material": 0
        }
      ]
    },
    {
      "primitives": [
        {
          "mode": 4,
          "attributes": {
            "POSITION": 4,
            "NORMAL": 5
          },
          "extras": {
            "type": "SubdivGeometry",
            "parameters": {
              "width": 198.59999084472656,
              "height": 229.82001495361328,
              "depth": 197.52000427246094
            }
          },
          "indices": 6,
          "material": 1
        }
      ]
    }
  ],
  "cameras": [
    {
      "type": "orthographic",
      "orthographic": {
        "xmag": 1.85963025080161,
        "ymag": 0.8823558117084723,
        "zfar": 100000,
        "znear": 0
      }
    }
  ]
}