<svg width="240" height="52" viewBox="0 0 240 52" fill="none" xmlns="http://www.w3.org/2000/svg">
<g clip-path="url(#clip0_28_136)">
<path d="M73.1303 10.076L77.791 0H24.0387L0 52H53.8916L58.4826 42.0635H32.8568L38.4619 29.9413H62.671L66.9987 20.5938H42.7897L47.6516 10.076H73.1458H73.1303ZM106.428 29.9568L120.279 0H106.792L98.6942 17.5168L94.0645 0H80.4774L66.6271 29.9568H80.2142L88.0335 13.0523L92.1755 29.9568H106.428ZM143.899 29.9258L167.017 0H149.768L146.114 5.51856C144.743 7.62677 143.071 10.1225 141.112 12.9826C139.455 15.3931 137.117 18.7724 134.075 23.1128C134.779 19.3615 135.561 15.5403 136.428 11.6572C137.187 8.31659 138.124 4.43345 139.239 0H122.137L118.699 29.9258H143.907H143.899ZM197.187 5.79759L199.866 0H168.937L155.102 29.918H187.208L189.855 24.2057H174.015L177.236 17.23H191.172L193.657 11.8509H179.729L182.524 5.79759H197.187ZM240 0H226.436L217.471 8.8669C217.154 7.52601 216.945 5.85184 216.836 3.85214C216.797 2.03846 216.844 0.751826 216.991 0H201.151L202.475 13.2228L187.301 29.9568H203.218L206.988 25.1513C207.917 23.9034 208.785 22.8106 209.605 21.8805C210.666 20.6558 211.874 19.3847 213.213 18.0593L213.569 23.9887C213.623 25.4691 213.693 26.5309 213.778 27.1897C213.832 28.2594 213.917 29.1739 214.057 29.949H229.161L227.079 13.2461L240 0Z" fill="white"/>
<path d="M223.2 34.4368L216.279 50.3336H218.354L223.618 38.2501L220.823 50.3336H223.781L230.702 34.4368H228.604L223.339 46.5357L226.003 34.4368H223.208H223.2ZM211.742 45.9389L214.986 38.4982C215.249 37.9013 215.597 37.3975 216.046 36.979C216.596 36.4675 217.177 36.2117 217.788 36.2117C218.4 36.2117 218.725 36.452 218.833 36.9403C218.942 37.351 218.857 37.8703 218.593 38.4904L215.381 45.8614C215.055 46.6055 214.676 47.2023 214.258 47.6596C213.693 48.2641 213.073 48.5742 212.408 48.5742C211.742 48.5742 211.424 48.2719 211.378 47.6596C211.324 47.1868 211.448 46.6132 211.742 45.9389ZM209.977 45.2103C209.295 46.7992 208.963 47.9851 209.001 48.7757C209.055 50.0236 209.884 50.6436 211.486 50.6436C213.089 50.6436 214.444 50.0236 215.582 48.7757C216.325 47.9619 217.037 46.7682 217.734 45.2103L220.289 39.343C220.932 37.8703 221.218 36.731 221.179 35.9249C221.094 34.7003 220.266 34.0957 218.694 34.0957C217.123 34.0957 215.729 34.7003 214.591 35.9249C213.855 36.7155 213.166 37.8548 212.524 39.343L209.961 45.2103H209.977ZM211.626 34.4368L204.697 50.3336H206.818L213.747 34.4368H211.626ZM205.192 36.4985L199.169 50.3336H201.29L207.313 36.4985H210.147L211.045 34.4368H203.729L202.831 36.4985H205.184H205.192ZM201.135 34.4368L194.206 50.3336H196.328L203.257 34.4368H201.135ZM191.303 40.9707L193.316 36.3512H193.572C194.384 36.3512 194.926 36.3512 195.205 36.3899C195.615 36.4287 195.894 36.4985 196.057 36.607C196.212 36.731 196.266 36.9248 196.235 37.1883C196.212 37.4208 196.088 37.7928 195.871 38.3044C195.569 38.9632 195.344 39.436 195.197 39.715C195.004 40.0638 194.818 40.3351 194.64 40.4979C194.454 40.6684 194.222 40.7846 193.951 40.8466C193.711 40.9087 193.378 40.9397 192.929 40.9397H191.961C191.737 40.9397 191.52 40.9397 191.311 40.9707M190.568 42.8618C191.504 42.8618 192.116 42.8773 192.426 42.8928C192.914 42.9161 193.246 42.9859 193.424 43.0944C193.618 43.2029 193.703 43.3889 193.68 43.6369C193.657 43.8772 193.541 44.2337 193.324 44.7143L192.674 46.2179C192.441 46.745 192.24 47.1248 192.054 47.365C191.853 47.6518 191.621 47.8533 191.35 47.9696C191.094 48.0936 190.754 48.1789 190.32 48.2099C190.026 48.2409 189.492 48.2486 188.702 48.2486L188.129 48.2641L190.483 42.8541H190.575L190.568 42.8618ZM192.077 34.4368L185.141 50.3336H189.422C190.808 50.3336 191.83 50.1088 192.495 49.6515C193.223 49.1632 193.928 48.1556 194.594 46.621L195.244 45.1251C195.701 44.0632 195.894 43.2959 195.817 42.8231C195.755 42.3193 195.375 41.955 194.694 41.7457C195.492 41.5365 196.095 41.2497 196.483 40.8854C196.87 40.5211 197.264 39.8778 197.667 38.9555L198.248 37.6223C198.782 36.3822 198.929 35.5374 198.673 35.1033C198.403 34.6615 197.597 34.4445 196.258 34.4445H192.07L192.077 34.4368ZM188.756 34.4368L181.835 50.3336H183.956L190.877 34.4368H188.756ZM179.729 34.4368L172.808 50.3413H174.921L178.196 42.8308H181.649L178.382 50.3413H180.503L187.432 34.4368H185.311L182.547 40.7924H179.094L181.866 34.4368H179.737H179.729ZM170.361 41.9628L163.85 50.3336H166.181L168.364 47.5898C168.774 47.055 169.076 46.6365 169.293 46.3497C169.541 46.0087 169.827 45.5979 170.168 45.1251L170.005 47.6828L169.827 50.3336H172.126L172.653 41.9395L178.374 34.429H176.106L172.815 38.8159C172.87 38.4207 172.916 37.9324 172.97 37.3355C172.994 36.9868 173.032 36.4365 173.094 35.6924L173.195 34.4368H170.865L170.361 41.9705V41.9628ZM164.648 34.4368L157.726 50.3258H163.517L164.439 48.2021H160.715L162.937 43.0944H166.32L167.187 41.1102H163.804L165.801 36.5217H169.417L170.33 34.429H164.648V34.4368ZM154.126 34.4368L147.197 50.3491H152.57L153.507 48.2021H150.255L156.255 34.4368H154.134H154.126ZM144.248 44.0787L148.281 37.258L146.354 44.0787H144.248ZM147.948 34.4368L138.41 50.3336H140.524L142.947 46.2567H145.765L144.658 50.3336H146.748L151.061 34.4368H147.948ZM139.517 36.4985L133.486 50.3336H135.6L141.631 36.4985H144.465L145.363 34.4368H138.054L137.156 36.4985H139.525H139.517ZM130.235 34.4368L123.306 50.3336H125.381L130.645 38.2501L127.858 50.3336H130.815L137.737 34.4368H135.646L130.374 46.5357L133.037 34.4368H130.243H130.235ZM123.732 34.4368L116.81 50.3258H122.609L123.538 48.2021H119.814L122.036 43.0944H125.419L126.279 41.1102H122.903L124.901 36.5217H128.508L129.422 34.429H123.739L123.732 34.4368ZM112.305 34.4368L105.383 50.3336H107.458L113.257 37.01L109.548 50.3336H111.6L119.45 37.01L113.652 50.3336H115.719L122.655 34.4368H119.001L112.25 46.4582L114.828 38.4749L116.028 34.4368H112.312H112.305ZM103.765 34.4368L96.8439 50.3336H98.9187L104.183 38.2501L101.388 50.3336H104.346L111.275 34.4368H109.177L103.912 46.5357L106.576 34.4368H103.781H103.765ZM92.2994 45.9389L95.5433 38.4982C95.8065 37.9013 96.1549 37.3975 96.6116 36.979C97.1613 36.4675 97.742 36.2117 98.3536 36.2117C98.9652 36.2117 99.2903 36.452 99.4065 36.9403C99.5071 37.351 99.4297 37.8703 99.1587 38.4904L95.9458 45.8614C95.6207 46.6055 95.2413 47.2023 94.8233 47.6596C94.2658 48.2641 93.6465 48.5742 92.9652 48.5742C92.3304 48.5742 91.9897 48.2719 91.9355 47.6596C91.8813 47.1868 92.0052 46.6132 92.2916 45.9389M90.542 45.2103C89.8529 46.7992 89.5278 47.9851 89.5742 48.7757C89.6207 50.0236 90.4491 50.6436 92.0594 50.6436C93.6697 50.6436 95.0013 50.0236 96.1549 48.7757C96.8904 47.9619 97.6104 46.7682 98.2994 45.2103L100.854 39.343C101.497 37.8703 101.799 36.731 101.752 35.9249C101.675 34.7003 100.839 34.0957 99.2594 34.0957C97.68 34.0957 96.2942 34.7003 95.1716 35.9249C94.4284 36.7155 93.7394 37.8548 93.0968 39.343L90.542 45.2103ZM86.3226 40.9242L88.2813 36.4287C89.1484 36.4287 89.7368 36.4287 90.0233 36.4442C90.4568 36.4597 90.7433 36.4985 90.9058 36.576C91.0684 36.6457 91.1458 36.762 91.1381 36.917C91.1381 37.0565 91.0607 37.289 90.9136 37.6301L89.9923 39.746C89.8452 40.0638 89.7291 40.2886 89.6207 40.4204C89.4891 40.5831 89.3187 40.6916 89.1097 40.7691C88.9084 40.8311 88.6065 40.8699 88.2039 40.9009C87.9407 40.9087 87.422 40.9164 86.6555 40.9164H86.3071L86.3226 40.9242ZM87.0813 34.4368L80.1523 50.3336H82.2271L85.471 42.8773C86.2684 42.8773 86.8646 42.9083 87.2749 42.9704C87.6775 43.0324 87.9407 43.1331 88.0878 43.2649C88.2117 43.3966 88.2426 43.5904 88.1807 43.8307C88.1575 43.9935 88.0491 44.2802 87.8633 44.691L87.8246 44.784L85.4091 50.3413H87.5149L89.3342 46.1559L89.4736 45.8459C89.7291 45.2646 89.9071 44.846 89.9846 44.6058C90.1317 44.2027 90.2091 43.8694 90.2168 43.5982C90.2323 43.2804 90.1704 43.0014 90.031 42.7611C89.8839 42.5053 89.6362 42.2728 89.2878 42.048C90.1317 41.8697 90.7975 41.5442 91.262 41.0559C91.6181 40.6839 91.9975 40.0406 92.3923 39.1415L93.3291 36.9868C93.7626 36.0102 93.6852 35.3281 93.1278 34.9406C92.64 34.615 91.6878 34.4523 90.271 34.4523H87.0813V34.4368ZM83.7755 34.4368L76.8542 50.3336H78.9755L85.8968 34.4368H83.7755ZM74.2762 34.4368L69.933 50.3336H73.4323L83.0091 34.4368H80.8336L78.4181 38.4749C77.6284 39.8003 76.7613 41.2574 75.8091 42.8386C75.2594 43.7532 74.4155 45.1406 73.293 47.0085L72.6813 48.0316L76.3742 34.4368H74.2684H74.2762ZM66.1781 34.4368L59.2568 50.3336H61.3317L66.5884 38.2501L63.7936 50.3336H66.751L73.6723 34.4368H71.582L66.3097 46.5357L68.9807 34.4368H66.1781Z" fill="white"/>
</g>
<defs>
<clipPath id="clip0_28_136">
<rect width="240" height="52" fill="white"/>
</clipPath>
</defs>
</svg>
