<svg width="158" height="71" viewBox="0 0 158 71" fill="none" xmlns="http://www.w3.org/2000/svg">
<path d="M135.241 32.3257C135.74 31.5075 136.354 30.7937 137.063 30.206C137.771 29.6172 138.579 29.1534 139.465 28.8264C140.351 28.4973 141.282 28.3313 142.237 28.3313H156.617L157.757 22.3394H143.376C141.543 22.3394 139.768 22.6381 138.101 23.2259C136.441 23.8117 134.926 24.6592 133.603 25.742C132.28 26.8258 131.139 28.1419 130.214 29.6524C129.288 31.1638 128.642 32.8558 128.296 34.6817C127.948 36.5133 127.947 38.2317 128.288 39.7959C128.43 40.4383 128.634 41.0398 128.872 41.6148H111.263C110.307 41.6148 109.438 41.4567 108.68 41.1442C107.915 40.8318 107.275 40.3797 106.774 39.8066C106.273 39.2286 105.928 38.5246 105.748 37.7152C105.57 36.9136 105.571 36.0105 105.757 35.0331C105.943 34.0548 106.288 33.1448 106.787 32.3266C107.287 31.5084 107.9 30.7947 108.608 30.2069C109.319 29.6182 110.126 29.1544 111.012 28.8273C111.896 28.4983 112.828 28.3323 113.782 28.3323H119.94H127.155L128.293 22.3403H121.077H114.919H74.3513L73.2129 28.3323H83.6366L79.9928 47.5326H85.9731L89.6169 28.3323H102.675C102.353 28.7561 102.044 29.1915 101.762 29.6533C100.838 31.1648 100.191 32.8568 99.8443 34.6826C99.4987 36.5143 99.4938 38.2327 99.8395 39.7968C100.183 41.3571 100.817 42.7279 101.719 43.8625C102.623 44.998 103.808 45.9041 105.235 46.5533C106.659 47.2026 108.313 47.5326 110.143 47.5326H138.595H146.179H152.975L154.099 41.6158H147.302H139.717C138.763 41.6158 137.894 41.4577 137.135 41.1452C136.369 40.8328 135.731 40.3807 135.231 39.8076C134.728 39.2296 134.382 38.5256 134.203 37.7162C134.023 36.9146 134.027 36.0115 134.213 35.0341C134.395 34.0538 134.742 33.1448 135.241 32.3257Z" fill="#007DC5"/>
<path d="M109.923 34.9369C109.61 36.5889 110.651 37.9324 112.241 37.9324H124.867L126.005 31.9404H113.369C111.778 31.9453 110.236 33.2878 109.923 34.9369Z" fill="#007DC5"/>
<path d="M21.0062 66.9168C16.1497 66.9168 11.6418 65.7813 7.77051 63.6079C12.6826 68.0777 19.2604 70.5 26.6623 70.5C39.73 70.5 52.9608 62.8453 60.5413 50.9482H51.0637C43.6628 60.8027 32.1671 66.9168 21.0062 66.9168Z" fill="#007DC5"/>
<path d="M97.8513 65.604H96.3047V53.1279H97.8513V65.604Z" fill="#007DC5"/>
<path d="M110.761 61.494H105.885V65.6035H104.365V61.494H99.4893V60.3292H110.76L110.761 61.494ZM110.407 57.7125L109.996 58.8783C109.046 58.7308 108.123 58.4262 107.23 57.9595C106.27 57.4596 105.583 56.8923 105.174 56.2626C104.791 56.9031 104.145 57.4635 103.232 57.9468C102.372 58.3969 101.403 58.7045 100.328 58.8792L99.9013 57.7017C101.225 57.4371 102.265 57.0329 103.026 56.4911C103.847 55.915 104.279 55.2081 104.323 54.3743H100.475V53.2085H109.775V54.3743H105.926C105.974 55.1808 106.443 55.8906 107.339 56.5047C108.131 57.0456 109.153 57.4479 110.407 57.7125Z" fill="#007DC5"/>
<path d="M113.968 65.604H112.423V53.1279H113.968V65.604Z" fill="#007DC5"/>
<path d="M126.955 53.1963H125.435V65.521H126.955V53.1963Z" fill="#007DC5"/>
<path d="M121.6 53.1953V56.1527H117.672V53.1406H116.163V60.9174V61.9602H123.105V53.1953H121.6ZM121.6 60.7954H117.672V57.3165H121.6V60.7954Z" fill="#007DC5"/>
<path d="M133.021 60.7954H130.772V54.3591H135.194V53.1953H129.267V62.0012H136.117V60.7954H133.021Z" fill="#007DC5"/>
<path d="M139.547 53.1953H138.027V65.52H139.547V53.1953Z" fill="#007DC5"/>
<path d="M148.396 60.0826H149.85V53.167H148.396V55.7954H146.924V56.9612H148.396V60.0826Z" fill="#007DC5"/>
<path d="M152.518 53.167H151.021V60.108H152.518V53.167Z" fill="#007DC5"/>
<path d="M142.971 62.136H151.022V65.5181H152.519V60.9712H142.971V62.136Z" fill="#007DC5"/>
<path d="M147.254 58.6195H143.243V56.9216H146.077V55.8252H143.243V54.2786H146.583V53.1694H141.735V59.8244H143.955H147.254V58.6195Z" fill="#007DC5"/>
<path d="M68.7553 25.783C67.8404 24.6983 66.6493 23.8439 65.213 23.2445C63.7729 22.643 62.1004 22.3394 60.2492 22.3394H46.0489L44.9124 28.3313H59.1127C60.0656 28.3313 60.9356 28.5051 61.6962 28.8449C62.4509 29.1827 63.0924 29.6543 63.5952 30.2401C64.1078 30.8299 64.4612 31.5456 64.6467 32.3647C64.8362 33.1829 64.842 34.0783 64.6585 35.0312C64.4749 36.0095 64.1293 36.9146 63.6294 37.7182C63.1353 38.5266 62.5241 39.2257 61.8162 39.8047C61.1084 40.3758 60.2941 40.8318 59.3997 41.1423C58.5103 41.4547 57.5651 41.6129 56.5897 41.6129H48.4019L50.2053 32.1099H44.1937L41.2686 47.5297H55.4669C57.2966 47.5297 59.0736 47.1997 60.7452 46.5504C62.4177 45.9001 63.9457 44.995 65.2833 43.8595C66.618 42.725 67.7692 41.3542 68.7075 39.7939C69.6448 38.2288 70.2941 36.5104 70.6397 34.6797C70.9834 32.8754 70.9834 31.197 70.6397 29.6875C70.2999 28.18 69.6663 26.8658 68.7553 25.783Z" fill="#00377B"/>
<path d="M60.9769 11.3296C60.7045 12.7678 59.3171 13.9326 57.8809 13.9326C56.4407 13.9326 55.4995 12.7678 55.77 11.3296C56.0443 9.8904 57.4298 8.72852 58.868 8.72852C60.3052 8.72754 61.2493 9.8904 60.9769 11.3296Z" fill="url(#paint0_linear_874_4438)"/>
<path d="M29.9144 47.5321C30.1185 47.5321 30.3196 47.5282 30.5149 47.5243H30.5305H30.5442C30.6526 47.5282 30.7619 47.5321 30.8732 47.5321C35.2034 47.5321 38.8658 44.5083 39.7826 40.1801L39.7963 40.1108C39.8031 40.0795 39.8099 40.0483 39.8158 40.017C40.22 37.8778 39.6928 35.8352 38.3669 34.4078L38.0134 34.0446L38.4098 33.7585C39.3335 33.0955 40.1282 32.2383 40.7092 31.2834C41.1895 30.4945 41.5166 29.6558 41.6807 28.7936C42.3553 25.2358 40.0081 22.3398 36.4512 22.3398H15.9426L14.8041 28.3318H33.6901C34.2339 28.3318 34.7113 28.4695 35.1087 28.7351C35.5617 29.0407 35.715 29.5923 35.5666 30.3793C35.4124 31.1858 35.056 31.754 34.5014 32.0713C34.0103 32.3564 33.4684 32.5 32.8992 32.5H14.0123L11.9785 43.2205C12.5184 44.7475 13.24 46.1926 14.1402 47.5321H29.9144ZM19.1158 37.292H31.8906C32.7342 37.292 33.3034 37.4706 33.6373 37.8378C33.9712 38.2068 34.0757 38.7399 33.9478 39.4166C33.815 40.1127 33.5065 40.6634 33.033 41.0461C32.5575 41.4298 31.917 41.6153 31.0695 41.6153H18.2937L19.1158 37.292Z" fill="#00377B"/>
<path d="M48.4262 0.5C46.4559 0.5 44.5519 1.73999 43.559 3.47695C41.6629 3.09128 39.6877 2.89405 37.6607 2.89405C20.459 2.89405 3.81194 16.8864 0.548916 34.0842C-1.85393 46.737 3.77777 58.2962 14.5852 63.0218L16.2499 54.2501C9.38604 49.1349 6.30755 40.7421 8.01229 31.7585C10.8721 16.6863 26.1962 4.42598 42.1725 4.42598C42.4947 4.42598 42.8082 4.44453 43.1264 4.45332C43.0532 4.67202 42.9771 4.88976 42.9331 5.11627C42.4508 7.66557 44.1253 9.73353 46.6726 9.73353C49.2229 9.73353 51.6833 7.66557 52.1657 5.11627C52.65 2.56795 50.9765 0.5 48.4262 0.5Z" fill="url(#paint1_linear_874_4438)"/>
<defs>
<linearGradient id="paint0_linear_874_4438" x1="58.3736" y1="32.302" x2="58.3736" y2="10.4015" gradientUnits="userSpaceOnUse">
<stop offset="0.103" stop-color="#002E6E"/>
<stop offset="0.9212" stop-color="#005BAA"/>
</linearGradient>
<linearGradient id="paint1_linear_874_4438" x1="4.12838" y1="51.7991" x2="33.6246" y2="6.34933" gradientUnits="userSpaceOnUse">
<stop offset="0.103" stop-color="#002E6E"/>
<stop offset="0.9212" stop-color="#005BAA"/>
</linearGradient>
</defs>
</svg>
