<svg width="465" height="180" viewBox="0 0 465 180" fill="none" xmlns="http://www.w3.org/2000/svg">
<path d="M7.32067 153V56.2727H47.6552C54.8971 56.2727 60.9583 57.296 65.8388 59.3427C70.7507 61.3893 74.4347 64.2546 76.8906 67.9386C79.3781 71.6225 80.6218 75.889 80.6218 80.7379C80.6218 84.4219 79.8504 87.7122 78.3075 90.609C76.7647 93.4743 74.6393 95.8516 71.9315 97.7408C69.2236 99.63 66.0907 100.952 62.5327 101.708V102.653C66.437 102.842 70.0423 103.896 73.3484 105.817C76.686 107.738 79.3623 110.414 81.3775 113.846C83.3926 117.247 84.4002 121.277 84.4002 125.937C84.4002 131.132 83.0778 135.777 80.4329 139.87C77.788 143.932 73.9624 147.143 68.956 149.505C63.9496 151.835 57.8726 153 50.7251 153H7.32067ZM30.6996 134.155H45.152C50.2214 134.155 53.9525 133.195 56.3455 131.274C58.77 129.353 59.9822 126.677 59.9822 123.245C59.9822 120.758 59.3997 118.616 58.2347 116.822C57.0697 114.995 55.4167 113.594 53.2756 112.618C51.1345 111.611 48.5683 111.107 45.5771 111.107H30.6996V134.155ZM30.6996 96.0405H43.6406C46.1911 96.0405 48.4581 95.6154 50.4418 94.7653C52.4254 93.9151 53.9683 92.6871 55.0703 91.0813C56.2038 89.4755 56.7706 87.5391 56.7706 85.272C56.7706 82.0289 55.6213 79.4785 53.3228 77.6207C51.0243 75.763 47.9228 74.8342 44.0185 74.8342H30.6996V96.0405ZM135.384 153H99.631V56.2727H135.337C145.192 56.2727 153.678 58.2092 160.794 62.082C167.941 65.9234 173.452 71.4651 177.325 78.707C181.197 85.9175 183.134 94.5449 183.134 104.589C183.134 114.665 181.197 123.324 177.325 130.566C173.483 137.808 167.989 143.365 160.841 147.238C153.694 151.079 145.208 153 135.384 153ZM123.01 133.069H134.487C139.903 133.069 144.484 132.156 148.231 130.33C152.009 128.472 154.859 125.465 156.779 121.309C158.732 117.121 159.708 111.548 159.708 104.589C159.708 97.6306 158.732 92.0889 156.779 87.9641C154.827 83.8079 151.946 80.8166 148.136 78.9904C144.358 77.1327 139.698 76.2038 134.156 76.2038H123.01V133.069ZM193.193 75.2592V56.2727H274.948V75.2592H245.618V153H222.57V75.2592H193.193ZM290.356 153V56.2727H357.801V75.2592H313.735V95.0959H354.353V114.13H313.735V134.013H357.801V153H290.356ZM464.233 91.3175H440.618C440.303 88.893 439.657 86.7047 438.681 84.7525C437.705 82.8003 436.414 81.1315 434.808 79.7461C433.203 78.3607 431.298 77.3059 429.094 76.5817C426.921 75.826 424.512 75.4481 421.867 75.4481C417.176 75.4481 413.13 76.5974 409.729 78.8959C406.36 81.1945 403.763 84.5163 401.936 88.8615C400.142 93.2067 399.244 98.465 399.244 104.636C399.244 111.06 400.157 116.444 401.984 120.789C403.841 125.103 406.439 128.362 409.776 130.566C413.146 132.738 417.129 133.825 421.726 133.825C424.308 133.825 426.653 133.494 428.763 132.833C430.904 132.172 432.778 131.211 434.383 129.952C436.021 128.661 437.359 127.102 438.398 125.276C439.468 123.418 440.208 121.324 440.618 118.994L464.233 119.136C463.823 123.418 462.58 127.637 460.502 131.794C458.455 135.95 455.637 139.744 452.047 143.176C448.458 146.577 444.081 149.285 438.917 151.3C433.785 153.315 427.897 154.322 421.253 154.322C412.5 154.322 404.66 152.402 397.733 148.56C390.837 144.687 385.39 139.051 381.391 131.652C377.392 124.253 375.393 115.247 375.393 104.636C375.393 93.9938 377.424 84.9729 381.486 77.5735C385.547 70.1741 391.042 64.5537 397.969 60.7124C404.896 56.871 412.658 54.9503 421.253 54.9503C427.11 54.9503 432.526 55.7689 437.501 57.4062C442.475 59.0121 446.852 61.3736 450.631 64.4908C454.409 67.5765 457.479 71.3706 459.84 75.8732C462.202 80.3758 463.666 85.5239 464.233 91.3175Z" fill="#002E6E"/>
<path d="M229.574 18V3.45455H240.057V6.63636H233.523V9.13636H239.517V12.3182H233.523V14.8182H240.029V18H229.574ZM255.601 3.45455V18H252.305L247.05 10.358H246.964V18H243.016V3.45455H246.368L251.538 11.0682H251.652V3.45455H255.601ZM262.446 3.45455L265.429 13.7102H265.543L268.526 3.45455H272.986L268.185 18H262.787L257.986 3.45455H262.446ZM279.336 3.45455V18H275.387V3.45455H279.336ZM282.207 18V3.45455H288.485C289.565 3.45455 290.51 3.65104 291.319 4.04403C292.129 4.43703 292.759 5.00284 293.208 5.74148C293.658 6.48011 293.883 7.36553 293.883 8.39773C293.883 9.43939 293.651 10.3177 293.187 11.0327C292.728 11.7476 292.082 12.2874 291.248 12.652C290.42 13.0166 289.451 13.1989 288.343 13.1989H284.593V10.1307H287.548C288.012 10.1307 288.407 10.0739 288.734 9.96023C289.065 9.84186 289.319 9.65483 289.494 9.39915C289.674 9.14347 289.764 8.80966 289.764 8.39773C289.764 7.98106 289.674 7.64252 289.494 7.3821C289.319 7.11695 289.065 6.92282 288.734 6.79972C288.407 6.67187 288.012 6.60795 287.548 6.60795H286.156V18H282.207ZM290.73 11.3239L294.366 18H290.076L286.525 11.3239H290.73ZM310.657 10.7273C310.657 12.3466 310.342 13.7126 309.713 14.8253C309.083 15.9332 308.233 16.7737 307.163 17.3466C306.093 17.9148 304.9 18.1989 303.583 18.1989C302.258 18.1989 301.06 17.9124 299.99 17.3395C298.924 16.7618 298.077 15.919 297.447 14.8111C296.822 13.6984 296.51 12.3371 296.51 10.7273C296.51 9.10795 296.822 7.74432 297.447 6.63636C298.077 5.52367 298.924 4.68324 299.99 4.11506C301.06 3.54214 302.258 3.25568 303.583 3.25568C304.9 3.25568 306.093 3.54214 307.163 4.11506C308.233 4.68324 309.083 5.52367 309.713 6.63636C310.342 7.74432 310.657 9.10795 310.657 10.7273ZM306.595 10.7273C306.595 9.85606 306.479 9.12216 306.247 8.52557C306.02 7.92424 305.681 7.4697 305.231 7.16193C304.786 6.84943 304.237 6.69318 303.583 6.69318C302.93 6.69318 302.378 6.84943 301.929 7.16193C301.484 7.4697 301.145 7.92424 300.913 8.52557C300.686 9.12216 300.572 9.85606 300.572 10.7273C300.572 11.5985 300.686 12.3348 300.913 12.9361C301.145 13.5327 301.484 13.9872 301.929 14.2997C302.378 14.6075 302.93 14.7614 303.583 14.7614C304.237 14.7614 304.786 14.6075 305.231 14.2997C305.681 13.9872 306.02 13.5327 306.247 12.9361C306.479 12.3348 306.595 11.5985 306.595 10.7273ZM326.07 3.45455V18H322.774L317.518 10.358H317.433V18H313.484V3.45455H316.837L322.007 11.0682H322.121V3.45455H326.07ZM328.938 3.45455H333.852L337.233 11.6932H337.403L340.784 3.45455H345.699V18H341.835V9.59091H341.722L338.483 17.8864H336.153L332.915 9.53409H332.801V18H328.938V3.45455ZM348.57 18V3.45455H359.053V6.63636H352.519V9.13636H358.513V12.3182H352.519V14.8182H359.025V18H348.57ZM374.597 3.45455V18H371.301L366.046 10.358H365.961V18H362.012V3.45455H365.364L370.534 11.0682H370.648V3.45455H374.597ZM377.067 6.63636V3.45455H389.709V6.63636H385.334V18H381.442V6.63636H377.067ZM394.138 18H389.876L394.678 3.45455H400.075L404.876 18H400.615L397.433 7.46023H397.32L394.138 18ZM393.342 12.2614H401.354V15.2159H393.342V12.2614ZM407.277 18V3.45455H411.226V14.8182H417.107V18H407.277ZM428.636 3.45455V18H424.688V3.45455H428.636ZM436.82 18.1989C435.637 18.1989 434.623 17.9645 433.781 17.4957C432.938 17.0223 432.291 16.3641 431.842 15.5213C431.392 14.6738 431.167 13.6913 431.167 12.5739C431.167 11.4564 431.392 10.4763 431.842 9.63352C432.291 8.78598 432.938 8.12784 433.781 7.65909C434.623 7.18561 435.637 6.94886 436.82 6.94886C438.004 6.94886 439.017 7.18561 439.86 7.65909C440.703 8.12784 441.349 8.78598 441.799 9.63352C442.249 10.4763 442.474 11.4564 442.474 12.5739C442.474 13.6913 442.249 14.6738 441.799 15.5213C441.349 16.3641 440.703 17.0223 439.86 17.4957C439.017 17.9645 438.004 18.1989 436.82 18.1989ZM436.849 15.3011C437.18 15.3011 437.467 15.1899 437.708 14.9673C437.95 14.7448 438.137 14.4276 438.269 14.0156C438.402 13.6037 438.468 13.1136 438.468 12.5455C438.468 11.9725 438.402 11.4825 438.269 11.0753C438.137 10.6634 437.95 10.3461 437.708 10.1236C437.467 9.90104 437.18 9.78977 436.849 9.78977C436.498 9.78977 436.198 9.90104 435.947 10.1236C435.696 10.3461 435.504 10.6634 435.371 11.0753C435.239 11.4825 435.173 11.9725 435.173 12.5455C435.173 13.1136 435.239 13.6037 435.371 14.0156C435.504 14.4276 435.696 14.7448 435.947 14.9673C436.198 15.1899 436.498 15.3011 436.849 15.3011ZM443.809 6.63636V3.45455H456.451V6.63636H452.076V18H448.184V6.63636H443.809ZM108.407 28.6364V25.4545H121.049V28.6364H116.674V40H112.782V28.6364H108.407ZM136.942 32.7273C136.942 34.3466 136.628 35.7126 135.998 36.8253C135.368 37.9332 134.518 38.7737 133.448 39.3466C132.378 39.9148 131.185 40.1989 129.869 40.1989C128.543 40.1989 127.345 39.9124 126.275 39.3395C125.21 38.7618 124.362 37.919 123.732 36.8111C123.107 35.6984 122.795 34.3371 122.795 32.7273C122.795 31.108 123.107 29.7443 123.732 28.6364C124.362 27.5237 125.21 26.6832 126.275 26.1151C127.345 25.5421 128.543 25.2557 129.869 25.2557C131.185 25.2557 132.378 25.5421 133.448 26.1151C134.518 26.6832 135.368 27.5237 135.998 28.6364C136.628 29.7443 136.942 31.108 136.942 32.7273ZM132.88 32.7273C132.88 31.8561 132.764 31.1222 132.532 30.5256C132.305 29.9242 131.966 29.4697 131.516 29.1619C131.071 28.8494 130.522 28.6932 129.869 28.6932C129.215 28.6932 128.664 28.8494 128.214 29.1619C127.769 29.4697 127.43 29.9242 127.198 30.5256C126.971 31.1222 126.857 31.8561 126.857 32.7273C126.857 33.5985 126.971 34.3348 127.198 34.9361C127.43 35.5327 127.769 35.9872 128.214 36.2997C128.664 36.6075 129.215 36.7614 129.869 36.7614C130.522 36.7614 131.071 36.6075 131.516 36.2997C131.966 35.9872 132.305 35.5327 132.532 34.9361C132.764 34.3348 132.88 33.5985 132.88 32.7273ZM138.688 28.6364V25.4545H151.33V28.6364H146.955V40H143.063V28.6364H138.688ZM155.759 40H151.498L156.299 25.4545H161.696L166.498 40H162.236L159.054 29.4602H158.941L155.759 40ZM154.963 34.2614H162.975V37.2159H154.963V34.2614ZM168.898 40V25.4545H172.847V36.8182H178.728V40H168.898ZM185.911 28.6364V25.4545H198.553V28.6364H194.178V40H190.286V28.6364H185.911ZM201.039 40V25.4545H211.522V28.6364H204.988V31.1364H210.982V34.3182H204.988V36.8182H211.494V40H201.039ZM228.06 30.9091H224.054C224.026 30.5777 223.95 30.277 223.827 30.0071C223.709 29.7372 223.543 29.5052 223.33 29.3111C223.122 29.1122 222.868 28.9607 222.57 28.8565C222.272 28.7476 221.933 28.6932 221.554 28.6932C220.891 28.6932 220.33 28.8542 219.871 29.1761C219.417 29.4981 219.071 29.9598 218.834 30.5611C218.602 31.1624 218.486 31.8845 218.486 32.7273C218.486 33.6174 218.605 34.3632 218.841 34.9645C219.083 35.5611 219.431 36.0109 219.885 36.3139C220.34 36.6122 220.887 36.7614 221.526 36.7614C221.891 36.7614 222.217 36.7164 222.506 36.6264C222.795 36.5317 223.046 36.3968 223.259 36.2216C223.472 36.0464 223.645 35.8357 223.777 35.5895C223.915 35.3385 224.007 35.0568 224.054 34.7443L228.06 34.7727C228.013 35.3883 227.84 36.0156 227.542 36.6548C227.243 37.2893 226.819 37.8764 226.27 38.4162C225.726 38.9512 225.051 39.3821 224.246 39.7088C223.441 40.0355 222.506 40.1989 221.441 40.1989C220.105 40.1989 218.908 39.9124 217.847 39.3395C216.791 38.7666 215.955 37.9238 215.34 36.8111C214.729 35.6984 214.424 34.3371 214.424 32.7273C214.424 31.108 214.736 29.7443 215.361 28.6364C215.986 27.5237 216.829 26.6832 217.89 26.1151C218.95 25.5421 220.134 25.2557 221.441 25.2557C222.359 25.2557 223.204 25.3812 223.976 25.6321C224.748 25.883 225.425 26.25 226.007 26.733C226.59 27.2112 227.059 27.8007 227.414 28.5014C227.769 29.2022 227.984 30.0047 228.06 30.9091ZM230.852 40V25.4545H234.8V31.1364H240.028V25.4545H243.977V40H240.028V34.3182H234.8V40H230.852ZM259.437 25.4545V40H256.141L250.886 32.358H250.8V40H246.852V25.4545H250.204L255.374 33.0682H255.488V25.4545H259.437ZM276.396 32.7273C276.396 34.3466 276.081 35.7126 275.451 36.8253C274.821 37.9332 273.971 38.7737 272.901 39.3466C271.831 39.9148 270.638 40.1989 269.322 40.1989C267.996 40.1989 266.798 39.9124 265.728 39.3395C264.663 38.7618 263.815 37.919 263.185 36.8111C262.56 35.6984 262.248 34.3371 262.248 32.7273C262.248 31.108 262.56 29.7443 263.185 28.6364C263.815 27.5237 264.663 26.6832 265.728 26.1151C266.798 25.5421 267.996 25.2557 269.322 25.2557C270.638 25.2557 271.831 25.5421 272.901 26.1151C273.971 26.6832 274.821 27.5237 275.451 28.6364C276.081 29.7443 276.396 31.108 276.396 32.7273ZM272.333 32.7273C272.333 31.8561 272.217 31.1222 271.985 30.5256C271.758 29.9242 271.419 29.4697 270.969 29.1619C270.524 28.8494 269.975 28.6932 269.322 28.6932C268.668 28.6932 268.117 28.8494 267.667 29.1619C267.222 29.4697 266.883 29.9242 266.651 30.5256C266.424 31.1222 266.31 31.8561 266.31 32.7273C266.31 33.5985 266.424 34.3348 266.651 34.9361C266.883 35.5327 267.222 35.9872 267.667 36.2997C268.117 36.6075 268.668 36.7614 269.322 36.7614C269.975 36.7614 270.524 36.6075 270.969 36.2997C271.419 35.9872 271.758 35.5327 271.985 34.9361C272.217 34.3348 272.333 33.5985 272.333 32.7273ZM279.223 40V25.4545H283.172V36.8182H289.052V40H279.223ZM305.173 32.7273C305.173 34.3466 304.858 35.7126 304.228 36.8253C303.599 37.9332 302.749 38.7737 301.679 39.3466C300.609 39.9148 299.415 40.1989 298.099 40.1989C296.773 40.1989 295.575 39.9124 294.505 39.3395C293.44 38.7618 292.592 37.919 291.963 36.8111C291.338 35.6984 291.025 34.3371 291.025 32.7273C291.025 31.108 291.338 29.7443 291.963 28.6364C292.592 27.5237 293.44 26.6832 294.505 26.1151C295.575 25.5421 296.773 25.2557 298.099 25.2557C299.415 25.2557 300.609 25.5421 301.679 26.1151C302.749 26.6832 303.599 27.5237 304.228 28.6364C304.858 29.7443 305.173 31.108 305.173 32.7273ZM301.11 32.7273C301.11 31.8561 300.994 31.1222 300.762 30.5256C300.535 29.9242 300.197 29.4697 299.747 29.1619C299.302 28.8494 298.752 28.6932 298.099 28.6932C297.446 28.6932 296.894 28.8494 296.444 29.1619C295.999 29.4697 295.661 29.9242 295.429 30.5256C295.201 31.1222 295.088 31.8561 295.088 32.7273C295.088 33.5985 295.201 34.3348 295.429 34.9361C295.661 35.5327 295.999 35.9872 296.444 36.2997C296.894 36.6075 297.446 36.7614 298.099 36.7614C298.752 36.7614 299.302 36.6075 299.747 36.2997C300.197 35.9872 300.535 35.5327 300.762 34.9361C300.994 34.3348 301.11 33.5985 301.11 32.7273ZM317.446 30.2557C317.384 30.0047 317.287 29.7846 317.155 29.5952C317.022 29.401 316.857 29.2377 316.658 29.1051C316.464 28.9678 316.236 28.866 315.976 28.7997C315.72 28.7287 315.438 28.6932 315.131 28.6932C314.468 28.6932 313.902 28.8518 313.433 29.169C312.969 29.4863 312.614 29.9432 312.368 30.5398C312.126 31.1364 312.006 31.8561 312.006 32.6989C312.006 33.5511 312.122 34.2803 312.354 34.8864C312.586 35.4924 312.931 35.9564 313.391 36.2784C313.85 36.6004 314.42 36.7614 315.102 36.7614C315.704 36.7614 316.203 36.6738 316.601 36.4986C317.003 36.3234 317.304 36.0748 317.503 35.7528C317.702 35.4309 317.801 35.0521 317.801 34.6165L318.483 34.6875H315.159V31.875H321.608V33.892C321.608 35.2178 321.326 36.3518 320.763 37.294C320.204 38.2315 319.432 38.9512 318.447 39.4531C317.467 39.9503 316.343 40.1989 315.074 40.1989C313.658 40.1989 312.415 39.8982 311.345 39.2969C310.275 38.6955 309.439 37.8385 308.838 36.7259C308.241 35.6132 307.943 34.2898 307.943 32.7557C307.943 31.553 308.125 30.4877 308.49 29.5597C308.859 28.6316 309.371 27.848 310.024 27.2088C310.678 26.5649 311.433 26.0795 312.29 25.7528C313.147 25.4214 314.065 25.2557 315.045 25.2557C315.907 25.2557 316.707 25.3788 317.446 25.625C318.189 25.8665 318.845 26.2121 319.413 26.6619C319.986 27.107 320.448 27.6349 320.798 28.2457C321.149 28.8565 321.362 29.5265 321.438 30.2557H317.446ZM323.169 25.4545H327.572L330.413 31.3636H330.527L333.368 25.4545H337.771L332.43 35.4261V40H328.51V35.4261L323.169 25.4545ZM358.623 30.9091H354.617C354.588 30.5777 354.513 30.277 354.39 30.0071C354.271 29.7372 354.105 29.5052 353.892 29.3111C353.684 29.1122 353.431 28.9607 353.132 28.8565C352.834 28.7476 352.496 28.6932 352.117 28.6932C351.454 28.6932 350.893 28.8542 350.434 29.1761C349.979 29.4981 349.633 29.9598 349.397 30.5611C349.165 31.1624 349.049 31.8845 349.049 32.7273C349.049 33.6174 349.167 34.3632 349.404 34.9645C349.645 35.5611 349.993 36.0109 350.448 36.3139C350.902 36.6122 351.449 36.7614 352.088 36.7614C352.453 36.7614 352.78 36.7164 353.069 36.6264C353.357 36.5317 353.608 36.3968 353.821 36.2216C354.034 36.0464 354.207 35.8357 354.34 35.5895C354.477 35.3385 354.569 35.0568 354.617 34.7443L358.623 34.7727C358.575 35.3883 358.402 36.0156 358.104 36.6548C357.806 37.2893 357.382 37.8764 356.833 38.4162C356.288 38.9512 355.614 39.3821 354.809 39.7088C354.004 40.0355 353.069 40.1989 352.003 40.1989C350.668 40.1989 349.47 39.9124 348.409 39.3395C347.354 38.7666 346.518 37.9238 345.902 36.8111C345.292 35.6984 344.986 34.3371 344.986 32.7273C344.986 31.108 345.299 29.7443 345.924 28.6364C346.549 27.5237 347.391 26.6832 348.452 26.1151C349.513 25.5421 350.696 25.2557 352.003 25.2557C352.922 25.2557 353.767 25.3812 354.539 25.6321C355.31 25.883 355.988 26.25 356.57 26.733C357.152 27.2112 357.621 27.8007 357.976 28.5014C358.331 29.2022 358.547 30.0047 358.623 30.9091ZM375.505 32.7273C375.505 34.3466 375.19 35.7126 374.56 36.8253C373.931 37.9332 373.081 38.7737 372.011 39.3466C370.941 39.9148 369.747 40.1989 368.431 40.1989C367.105 40.1989 365.907 39.9124 364.837 39.3395C363.772 38.7618 362.924 37.919 362.295 36.8111C361.67 35.6984 361.357 34.3371 361.357 32.7273C361.357 31.108 361.67 29.7443 362.295 28.6364C362.924 27.5237 363.772 26.6832 364.837 26.1151C365.907 25.5421 367.105 25.2557 368.431 25.2557C369.747 25.2557 370.941 25.5421 372.011 26.1151C373.081 26.6832 373.931 27.5237 374.56 28.6364C375.19 29.7443 375.505 31.108 375.505 32.7273ZM371.442 32.7273C371.442 31.8561 371.326 31.1222 371.094 30.5256C370.867 29.9242 370.529 29.4697 370.079 29.1619C369.634 28.8494 369.085 28.6932 368.431 28.6932C367.778 28.6932 367.226 28.8494 366.776 29.1619C366.331 29.4697 365.993 29.9242 365.761 30.5256C365.533 31.1222 365.42 31.8561 365.42 32.7273C365.42 33.5985 365.533 34.3348 365.761 34.9361C365.993 35.5327 366.331 35.9872 366.776 36.2997C367.226 36.6075 367.778 36.7614 368.431 36.7614C369.085 36.7614 369.634 36.6075 370.079 36.2997C370.529 35.9872 370.867 35.5327 371.094 34.9361C371.326 34.3348 371.442 33.5985 371.442 32.7273ZM378.332 25.4545H383.247L386.627 33.6932H386.798L390.179 25.4545H395.093V40H391.23V31.5909H391.116L387.877 39.8864H385.548L382.309 31.5341H382.196V40H378.332V25.4545ZM397.965 40V25.4545H404.243C405.323 25.4545 406.267 25.6676 407.077 26.0938C407.887 26.5199 408.516 27.1188 408.966 27.8906C409.416 28.6624 409.641 29.5644 409.641 30.5966C409.641 31.6383 409.409 32.5402 408.945 33.3026C408.486 34.0649 407.839 34.652 407.006 35.0639C406.177 35.4759 405.209 35.6818 404.101 35.6818H400.351V32.6136H403.306C403.77 32.6136 404.165 32.5331 404.492 32.3722C404.823 32.2064 405.077 31.9721 405.252 31.669C405.432 31.366 405.522 31.0085 405.522 30.5966C405.522 30.1799 405.432 29.8248 405.252 29.5312C405.077 29.233 404.823 29.0057 404.492 28.8494C404.165 28.6884 403.77 28.608 403.306 28.608H401.914V40H397.965ZM414.052 40H409.79L414.592 25.4545H419.989L424.79 40H420.529L417.347 29.4602H417.234L414.052 40ZM413.256 34.2614H421.268V37.2159H413.256V34.2614ZM439.777 25.4545V40H436.481L431.225 32.358H431.14V40H427.191V25.4545H430.544L435.714 33.0682H435.828V25.4545H439.777ZM442.048 25.4545H446.451L449.292 31.3636H449.406L452.247 25.4545H456.65L451.309 35.4261V40H447.389V35.4261L442.048 25.4545Z" fill="#007DC5"/>
</svg>
