<svg width="24" height="24" viewBox="0 0 24 24" fill="none" xmlns="http://www.w3.org/2000/svg">
<path d="M11.5 19.6345C10.782 19.6345 10.165 19.3926 9.649 18.9087C9.133 18.4247 8.84617 17.8334 8.7885 17.1347H10.3078C10.3589 17.4244 10.4948 17.6635 10.7155 17.852C10.936 18.0405 11.1975 18.1347 11.5 18.1347C11.8475 18.1347 12.1427 18.0132 12.3855 17.7702C12.6285 17.5272 12.75 17.232 12.75 16.8845C12.75 16.5371 12.6285 16.242 12.3855 15.999C12.1427 15.756 11.8475 15.6345 11.5 15.6345H2.25V14.1347H11.5C12.2628 14.1347 12.9118 14.4023 13.447 14.9375C13.9823 15.4728 14.25 16.1218 14.25 16.8845C14.25 17.6473 13.9823 18.2964 13.447 18.8317C12.9118 19.3669 12.2628 19.6345 11.5 19.6345ZM2.25 9.86523V8.36548H15.5C15.9975 8.36548 16.4135 8.19814 16.748 7.86348C17.0827 7.52881 17.25 7.11281 17.25 6.61548C17.25 6.11798 17.0827 5.7019 16.748 5.36723C16.4135 5.03256 15.9975 4.86523 15.5 4.86523C15.041 4.86523 14.6538 5.00689 14.3385 5.29023C14.023 5.57356 13.8397 5.93189 13.7885 6.36523H12.2692C12.3269 5.51023 12.6628 4.79648 13.277 4.22398C13.891 3.65165 14.632 3.36548 15.5 3.36548C16.4128 3.36548 17.1827 3.67889 17.8095 4.30573C18.4365 4.93273 18.75 5.70265 18.75 6.61548C18.75 7.52815 18.4365 8.29798 17.8095 8.92498C17.1827 9.55181 16.4128 9.86523 15.5 9.86523H2.25ZM18.75 17.7307V16.2115C19.1833 16.1603 19.5417 15.977 19.825 15.6615C20.1083 15.3461 20.25 14.959 20.25 14.5C20.25 14.0025 20.0827 13.5865 19.748 13.252C19.4135 12.9173 18.9975 12.75 18.5 12.75H2.25V11.25H18.5C19.4128 11.25 20.1827 11.5635 20.8095 12.1905C21.4365 12.8173 21.75 13.5871 21.75 14.5C21.75 15.368 21.4638 16.109 20.8913 16.723C20.3189 17.3371 19.6052 17.6731 18.75 17.7307Z" fill="#81A9AB"/>
</svg>
