<svg width="24" height="24" viewBox="0 0 24 24" fill="none" xmlns="http://www.w3.org/2000/svg">
<path d="M12 19.4614C11.0945 19.4614 10.2415 19.3124 9.44102 19.0144C8.64069 18.7163 7.91486 18.3005 7.26352 17.7672L5.52702 19.4787C5.39069 19.6172 5.21719 19.6864 5.00652 19.6864C4.79586 19.6864 4.62127 19.6172 4.48277 19.4787C4.34427 19.3403 4.27502 19.1658 4.27502 18.9549C4.27502 18.7443 4.34427 18.5708 4.48277 18.4347L6.19427 16.7229C5.66094 16.0718 5.24527 15.3418 4.94727 14.5332C4.64911 13.7243 4.50002 12.8671 4.50002 11.9614C4.50002 9.86776 5.22661 8.09434 6.67977 6.64118C8.13294 5.18801 9.90636 4.46143 12 4.46143H19.5V11.9614C19.5 14.0553 18.7734 15.8287 17.3203 17.2817C15.8671 18.7348 14.0937 19.4614 12 19.4614ZM12 17.9614C13.6667 17.9614 15.0834 17.3781 16.25 16.2114C17.4167 15.0448 18 13.6281 18 11.9614V5.96143H12C10.3334 5.96143 8.91669 6.54476 7.75002 7.71143C6.58336 8.87809 6.00002 10.2948 6.00002 11.9614C6.00002 12.6563 6.11286 13.3172 6.33852 13.9442C6.56419 14.5712 6.87761 15.1359 7.27877 15.6384L12.4828 10.4347C12.6191 10.2962 12.7926 10.2269 13.0033 10.2269C13.2139 10.2269 13.3894 10.2971 13.5298 10.4374C13.6829 10.5906 13.7595 10.7678 13.7595 10.9692C13.7595 11.1705 13.682 11.3487 13.527 11.5037L8.32302 16.6979C8.82569 17.0993 9.39044 17.4102 10.0173 17.6307C10.6443 17.8512 11.3052 17.9614 12 17.9614Z" fill="#81A9AB"/>
</svg>
