<svg width="24" height="24" viewBox="0 0 24 24" fill="none" xmlns="http://www.w3.org/2000/svg">
<path d="M5.44226 20.75V19.25H10.4423V16.75H10.1923C8.87809 16.75 7.75793 16.2868 6.83176 15.3605C5.90543 14.4343 5.44226 13.3141 5.44226 12C5.44226 11.0295 5.71501 10.1465 6.26051 9.35096C6.80618 8.55546 7.53476 7.97563 8.44626 7.61146C8.52826 6.98713 8.82243 6.49355 9.32876 6.13071C9.83526 5.76788 10.3898 5.64096 10.9923 5.74996L10.3848 4.06546L11.3348 3.71546L10.9848 2.79621L12.5193 2.23071L12.8385 3.18071L13.75 2.84996L16.3653 9.98446L15.4538 10.3345L15.8038 11.2845L14.2693 11.85L13.95 10.9L13 11.2692L12.3808 9.52296C12.1564 9.78196 11.8849 9.98263 11.5663 10.125C11.2478 10.2673 10.9154 10.3282 10.5693 10.3077C10.1769 10.2872 9.81759 10.1699 9.49126 9.95571C9.16509 9.74155 8.90134 9.47038 8.70001 9.14221C8.16034 9.41538 7.73243 9.8058 7.41626 10.3135C7.10026 10.8211 6.94226 11.3833 6.94226 12C6.94226 12.9028 7.25826 13.6701 7.89026 14.302C8.52226 14.934 9.28959 15.25 10.1923 15.25H17.9423V16.75H12.5578V19.25H18.5578V20.75H5.44226ZM13.727 9.70371L14.8193 9.27696L13.0423 4.36521L11.9 4.77296L13.727 9.70371ZM11.4865 8.79496C11.7007 8.5813 11.8078 8.31655 11.8078 8.00071C11.8078 7.68488 11.7009 7.41988 11.4873 7.20571C11.2736 6.99155 11.0088 6.88446 10.693 6.88446C10.3772 6.88446 10.1122 6.9913 9.89801 7.20496C9.68401 7.41863 9.57701 7.68338 9.57701 7.99921C9.57701 8.31505 9.68384 8.58005 9.89751 8.79421C10.1112 9.00838 10.3759 9.11546 10.6918 9.11546C11.0076 9.11546 11.2725 9.00863 11.4865 8.79496Z" fill="#81A9AB"/>
</svg>
