<svg width="24" height="24" viewBox="0 0 24 24" fill="none" xmlns="http://www.w3.org/2000/svg">
<path d="M12.2463 18.8463C12.4206 18.8296 12.5642 18.7649 12.677 18.6521C12.7898 18.5392 12.8462 18.4021 12.8462 18.2406C12.8462 18.0521 12.784 17.903 12.6595 17.7933C12.5352 17.6836 12.3788 17.6371 12.1905 17.6538C11.5072 17.7038 10.7629 17.5036 9.95775 17.0531C9.15258 16.6024 8.65 15.8187 8.45 14.7021C8.41667 14.5316 8.34517 14.3976 8.2355 14.3001C8.126 14.2026 7.99558 14.1538 7.84425 14.1538C7.66225 14.1538 7.51067 14.2221 7.3895 14.3588C7.26833 14.4953 7.2295 14.6706 7.273 14.8846C7.5435 16.3372 8.19742 17.3757 9.23475 18.0001C10.2719 18.6244 11.2758 18.9065 12.2463 18.8463ZM6.64325 19.2943C5.21442 17.8238 4.5 15.9924 4.5 13.8001C4.5 12.2487 5.12083 10.5484 6.3625 8.69905C7.60417 6.84972 9.48333 4.83472 12 2.65405C14.5167 4.83472 16.3958 6.84972 17.6375 8.69905C18.8792 10.5484 19.5 12.2487 19.5 13.8001C19.5 15.9924 18.7856 17.8238 17.3568 19.2943C15.9279 20.7648 14.1423 21.5001 12 21.5001C9.85767 21.5001 8.07208 20.7648 6.64325 19.2943ZM16.3 18.2376C17.4333 17.0626 18 15.5834 18 13.8001C18 12.5834 17.4958 11.2084 16.4875 9.67505C15.4792 8.14172 13.9833 6.46672 12 4.65005C10.0167 6.46672 8.52083 8.14172 7.5125 9.67505C6.50417 11.2084 6 12.5834 6 13.8001C6 15.5834 6.56667 17.0626 7.7 18.2376C8.83333 19.4126 10.2667 20.0001 12 20.0001C13.7333 20.0001 15.1667 19.4126 16.3 18.2376Z" fill="#81A9AB"/>
</svg>
